<svg xmlns="http://www.w3.org/2000/svg" width="512" height="512" viewBox="0 0 512 512">
  <defs>
    <linearGradient id="gradient" x1="0%" y1="0%" x2="100%" y2="100%">
      <stop offset="0%" stop-color="#4F46E5" />
      <stop offset="100%" stop-color="#2563EB" />
    </linearGradient>
  </defs>
  <rect width="512" height="512" rx="128" fill="url(#gradient)" />
  <g fill="white" transform="translate(96, 96) scale(0.625)">
    <!-- Road icon -->
    <path d="M256 0C114.6 0 0 114.6 0 256s114.6 256 256 256s256-114.6 256-256S397.4 0 256 0zM256 464c-114.7 0-208-93.31-208-208S141.3 48 256 48s208 93.31 208 208S370.7 464 256 464zM296 336h-16V128c0-8.8-7.2-16-16-16h-16c-8.8 0-16 7.2-16 16v208h-16c-8.8 0-16 7.2-16 16v16c0 8.8 7.2 16 16 16h80c8.8 0 16-7.2 16-16v-16C312 343.2 304.8 336 296 336z"/>
    <!-- Car icon -->
    <path d="M135.2 117.4L109.1 192H402.9l-26.1-74.6C372.3 104.6 360.2 96 346.6 96H165.4c-13.6 0-25.7 8.6-30.2 21.4zM39.6 196.8L74.8 96.3C88.3 57.8 124.6 32 165.4 32H346.6c40.8 0 77.1 25.8 90.6 64.3l35.2 100.5c23.2 9.6 39.6 32.5 39.6 59.2V400c0 17.7-14.3 32-32 32H448c-17.7 0-32-14.3-32-32v-32H96v32c0 17.7-14.3 32-32 32H32c-17.7 0-32-14.3-32-32V256c0-26.7 16.4-49.6 39.6-59.2zM128 288a32 32 0 1 0 -64 0 32 32 0 1 0 64 0zm288 32a32 32 0 1 0 0-64 32 32 0 1 0 0 64z"/>
  </g>
</svg>